:version 1.10
:name ASF
:units
  mass 1
  length 1
  angle deg
:documentation
  ASF file generated by Kaydara
:root
  axis xyz
  order  tx ty tz rx ry rz
  position 0 0 0
  orientation 0 0 0
:bonedata
  begin
    id 1
    name RightUpLegDummy
    direction -1 2.30186e-007 8.31532e-007
    length 4.46685
    axis 0 0 0 xyz
  end
  begin
    id 2
    name RightUpLeg
    direction -2.30187e-007 -1 1.24343e-010
    length 16.4045
    axis -3.49089 -0.000906625 0.000286804 xyz
    dof rx ry rz
  end
  begin
    id 3
    name RightLeg
    direction -2.30181e-007 -1 -4.17157e-009
    length 17.5097
    axis 3.68512 0.0193738 -0.131023 xyz
    dof rx ry rz
  end
  begin
    id 4
    name RightFoot
    direction 8.31421e-007 -4.51202e-011 1
    length 6.49508
    axis 4.81691e-005 -0.120479 -0.188788 xyz
    dof rx ry rz
  end
  begin
    id 5
    name RightToes
    direction 0.00124746 -0.014064 0.9999
    length 3.85082
    axis 0.000481921 0.542163 -0.142578 xyz
    dof rx ry rz
  end
  begin
    id 6
    name SpineDummy
    direction 0.0717043 0.9409 -0.331007
    length 10.0032
    axis 0 0 0 xyz
  end
  begin
    id 7
    name Spine
    direction 2.30186e-007 1 4.58806e-011
    length 9.84055
    axis -0.001389 0.000121418 2.40972e-006 xyz
    dof rx ry rz
  end
  begin
    id 8
    name Spine1
    direction 0 0 0
    length 0
    axis -0.001389 0.000121451 1.30017e-006 xyz
    dof rx ry rz
  end
  begin
    id 9
    name HEadDummy
    direction -0.00347485 0.950688 -0.310128
    length 8.00997
    axis -0.001389 0.000121451 1.30017e-006 xyz
  end
  begin
    id 10
    name HEad
    direction -0.0222688 0.980941 0.193023
    length 5.12695
    axis -0.001389 0.000121451 1.30017e-006 xyz
    dof rx ry rz
  end
  begin
    id 11
    name LeftShoulder1Dummy
    direction 0.988871 0.146793 -0.0242004
    length 3.5792
    axis -0.001389 0.000121451 1.30017e-006 xyz
  end
  begin
    id 12
    name LeftShoulder1
    direction 0.993832 0.108932 0.020779
    length 4.16823
    axis -0.001389 0.000121451 1.30017e-006 xyz
    dof rx ry rz
  end
  begin
    id 13
    name LeftArm
    direction 1 3.44807e-006 -8.31404e-007
    length 9.91437
    axis -23.1894 0.134784 0.967509 xyz
    dof rx ry rz
  end
  begin
    id 14
    name LeftForeArm
    direction 1 3.44842e-006 -8.31581e-007
    length 9.08575
    axis -9.91835 -0.06569 -0.177793 xyz
    dof rx ry rz
  end
  begin
    id 15
    name LeftHand
    direction 0.992938 -0.0411636 0.11126
    length 5.32135
    axis -0.00960232 -0.00340091 0.185173 xyz
    dof rx ry rz
  end
  begin
    id 16
    name RightShoulderDummy
    direction -0.988871 0.146793 -0.0241962
    length 3.5792
    axis -0.001389 0.000121451 1.30017e-006 xyz
  end
  begin
    id 17
    name RightShoulder
    direction -0.993832 0.108933 0.0207785
    length 4.16823
    axis 0.215806 0.000203643 -0.0068026 xyz
    dof rx ry rz
  end
  begin
    id 18
    name RightArm
    direction -1 3.90912e-006 8.31284e-007
    length 9.91437
    axis -23.2009 -0.134239 -0.964101 xyz
    dof rx ry rz
  end
  begin
    id 19
    name RightForeArm
    direction -1 3.90882e-006 8.31502e-007
    length 9.08575
    axis -9.92322 0.0658061 0.178867 xyz
    dof rx ry rz
  end
  begin
    id 20
    name RightHand
    direction -0.992843 -0.0414603 0.112003
    length 5.28593
    axis -0.00960638 0.00330671 -0.185228 xyz
    dof rx ry rz
  end
  begin
    id 21
    name LeftUpLegDummy
    direction 1 -2.30186e-007 -8.31532e-007
    length 4.46685
    axis 0 0 0 xyz
  end
  begin
    id 22
    name LeftUpLeg
    direction -2.30187e-007 -1 6.00931e-010
    length 16.4045
    axis -3.48766 0.00143442 -0.000524262 xyz
    dof rx ry rz
  end
  begin
    id 23
    name LeftLeg
    direction -2.30187e-007 -1 1.6669e-009
    length 17.5097
    axis 3.68178 -0.00654042 -0.000285133 xyz
    dof rx ry rz
  end
  begin
    id 24
    name LeftFoot
    direction 8.31532e-007 -4.54478e-011 1
    length 6.49508
    axis 1.87233e-006 4.66016e-005 -8.6538e-006 xyz
    dof rx ry rz
  end
  begin
    id 25
    name LeftToes
    direction 0.00818058 -0.00485161 0.999955
    length 3.85048
    axis 1.06247e-005 4.65869e-005 -8.65513e-006 xyz
    dof rx ry rz
  end
:hierarchy
  begin
    root RightUpLegDummy SpineDummy LeftUpLegDummy
    RightUpLegDummy RightUpLeg
    RightUpLeg RightLeg
    RightLeg RightFoot
    RightFoot RightToes
    SpineDummy Spine
    Spine Spine1
    Spine1 HEadDummy LeftShoulder1Dummy RightShoulderDummy
    HEadDummy HEad
    LeftShoulder1Dummy LeftShoulder1
    LeftShoulder1 LeftArm
    LeftArm LeftForeArm
    LeftForeArm LeftHand
    RightShoulderDummy RightShoulder
    RightShoulder RightArm
    RightArm RightForeArm
    RightForeArm RightHand
    LeftUpLegDummy LeftUpLeg
    LeftUpLeg LeftLeg
    LeftLeg LeftFoot
    LeftFoot LeftToes
  end

:SAMPLES-PER-SECOND 30
:FULLY-SPECIFIED
:DEGREES
80
root  -56.6044 31.4271 -3.53272 9.58661 2.0341 -1.63547
RightUpLeg  -29.0659 6.8607 -16.8509
RightLeg  46.1569 8.31455 7.50977
RightFoot  -3.21605 -0.0152556 -0.165916
RightToes  -53.8211 -0.337196 -0.37919
Spine  12.8641 -2.28517 0.218507
Spine1  23.4842 -2.78411 -3.47115
HEad  17.0295 37.7658 -21.1094
LeftShoulder1  0 -2.42657e-020 -4.95415e-022
LeftArm  -30.1122 -5.50485 -79.5633
LeftForeArm  46.3652 -25.7666 -4.85587
LeftHand  0.131313 -10.0691 -1.86171
RightShoulder  0 2.42657e-020 1.07489e-018
RightArm  -30.8585 6.72551 66.553
RightForeArm  -167.282 64.271 158.101
RightHand  -3.28771 24.5769 -14.6447
LeftUpLeg  -40.9445 5.33996 7.46106
LeftLeg  42.8558 -4.62082 -3.76153
LeftFoot  -0.32337 -0.003199 -0.132562
LeftToes  -23.5412 1.71452e-006 7.46813e-008
81
root  -57.0715 31.4458 -3.86298 9.43897 1.78044 -1.2764
RightUpLeg  -25.4932 7.23704 -16.8927
RightLeg  45.6025 8.45253 7.48803
RightFoot  -5.02071 -0.0385817 -0.50252
RightToes  -54.5483 -0.343834 -0.381749
Spine  12.6144 -1.92135 -0.400498
Spine1  22.8785 -1.84829 -4.63656
HEad  17.8541 38.1244 -20.4078
LeftShoulder1  0 -2.42657e-020 -4.95415e-022
LeftArm  -31.1376 -4.91739 -79.2853
LeftForeArm  46.0782 -25.9652 -4.89974
LeftHand  0.0319548 -10.0404 -0.734222
RightShoulder  0 2.42657e-020 1.07489e-018
RightArm  -23.2644 10.4367 67.444
RightForeArm  -162.542 62.7058 159.609
RightHand  -2.61168 23.523 -12.1291
LeftUpLeg  -40.4704 7.08565 7.45175
LeftLeg  41.1597 -5.89909 -4.51113
LeftFoot  1.19027 -0.000231919 -0.249715
LeftToes  -25.0262 1.71452e-006 7.46813e-008
82
root  -57.6264 31.4258 -4.2746 9.61258 1.68458 -0.894977
RightUpLeg  -22.7883 7.95615 -16.7361
RightLeg  44.1722 8.66061 7.29868
RightFoot  -7.17965 -0.0825709 -0.938643
RightToes  -52.9148 -0.328968 -0.375883
Spine  12.2848 -1.50933 -1.01267
Spine1  22.1215 -0.954182 -5.53465
HEad  19.0828 37.8382 -19.1097
LeftShoulder1  0 -2.42657e-020 -4.95415e-022
LeftArm  -32.3873 -4.66958 -79.2806
LeftForeArm  46.3571 -25.82 -4.86755
LeftHand  0.00373445 -9.73576 -0.414098
RightShoulder  0 2.42657e-020 1.07489e-018
RightArm  -14.1826 14.2989 68.7608
RightForeArm  -159.86 64.8681 157.514
RightHand  -2.79572 22.6306 -13.5396
LeftUpLeg  -40.5785 8.50703 7.56877
LeftLeg  39.673 -7.09007 -5.12796
LeftFoot  3.15294 0.014237 -0.51731
LeftToes  -27.412 1.71452e-006 7.46813e-008
83
root  -58.2579 31.3619 -4.76231 9.82336 1.68783 -0.647636
RightUpLeg  -21.097 8.88703 -16.2646
RightLeg  42.1704 8.84579 6.94752
RightFoot  -10.0016 -0.165582 -1.51469
RightToes  -52.1525 -0.32209 -0.373001
Spine  12.0817 -1.01618 -1.42123
Spine1  21.657 -0.0244959 -5.86973
HEad  19.8796 36.6068 -18.1133
LeftShoulder1  0 -2.42657e-020 -4.95415e-022
LeftArm  -33.1325 -4.72817 -79.7153
LeftForeArm  45.3976 -25.7585 -4.8556
LeftHand  0.0177596 -9.56789 -0.582574
RightShoulder  0 2.42657e-020 1.07489e-018
RightArm  -6.44142 18.5881 70.6506
RightForeArm  -163.045 70.988 148.768
RightHand  -2.58766 22.3956 -12.6507
LeftUpLeg  -40.8563 9.40587 8.03307
LeftLeg  38.0837 -7.96681 -5.42651
LeftFoot  5.10346 0.0385889 -0.865884
LeftToes  -28.817 1.71452e-006 7.46813e-008
84
root  -58.9784 31.2553 -5.32022 9.95541 1.88853 -0.606684
RightUpLeg  -20.8352 9.24851 -15.4628
RightLeg  40.5341 9.22012 6.82786
RightFoot  -13.2157 -0.302374 -2.23233
RightToes  -49.2885 -0.296603 -0.361361
Spine  12.0332 -0.428143 -1.59134
Spine1  21.5799 0.9868 -5.62594
HEad  20.1588 34.6277 -17.3624
LeftShoulder1  0 -2.42657e-020 -4.95415e-022
LeftArm  -33.2665 -5.32996 -80.6344
LeftForeArm  43.9074 -25.3988 -4.77956
LeftHand  0.00277052 -9.45433 -0.403746
RightShoulder  0 2.42657e-020 1.07489e-018
RightArm  -0.906434 22.5322 73.152
RightForeArm  169.013 78.71 117.05
RightHand  -3.02947 21.2358 -15.6923
LeftUpLeg  -41.2304 10.2998 8.77089
LeftLeg  36.4353 -8.9724 -5.73392
LeftFoot  7.25844 0.0863355 -1.36113
LeftToes  -31.0775 1.71452e-006 7.46813e-008
85
root  -59.7967 31.0861 -5.94615 10.0326 2.62149 -0.731496
RightUpLeg  -21.842 9.91052 -14.3551
RightLeg  41.187 9.52349 7.21562
RightFoot  -16.2888 -0.483617 -3.00093
RightToes  -45.9132 -0.267358 -0.346031
Spine  12.0818 0.188621 -1.43233
Spine1  21.7569 2.02363 -4.80954
HEad  20.1065 32.3509 -16.8907
LeftShoulder1  0 -2.42657e-020 -4.95415e-022
LeftArm  -33.0787 -5.96277 -82.173
LeftForeArm  42.3268 -25.5101 -4.8059
LeftHand  0.0286782 -9.13159 -0.729619
RightShoulder  0 2.42657e-020 1.07489e-018
RightArm  2.59875 25.9204 75.4689
RightForeArm  98.055 75.7844 44.3057
RightHand  -3.53462 21.4686 -18.1242
LeftUpLeg  -41.8168 11.0493 9.71966
LeftLeg  34.7595 -10.4284 -6.23037
LeftFoot  9.17443 0.159406 -1.98659
LeftToes  -34.6116 1.71452e-006 7.46813e-008
86
root  -60.6753 30.8037 -6.61385 10.0457 4.61863 -0.649332
RightUpLeg  -23.7628 9.89114 -13.1554
RightLeg  44.2191 8.98179 7.57773
RightFoot  -19.0523 -0.648988 -3.48852
RightToes  -44.2621 -0.253394 -0.33791
Spine  12.3864 0.804906 -1.0587
Spine1  22.4015 3.58226 -4.25774
HEad  20.0861 29.5989 -16.0669
LeftShoulder1  0 -2.42657e-020 -4.95415e-022
LeftArm  -32.0746 -6.78933 -83.843
LeftForeArm  40.7025 -26.4279 -5.00902
LeftHand  0.0402901 -8.99829 -0.882651
RightShoulder  0 2.42657e-020 1.07489e-018
RightArm  3.06285 29.098 77.9312
RightForeArm  74.8285 58.7881 16.8772
RightHand  -4.12582 22.3408 -20.3108
LeftUpLeg  -42.98 11.0022 10.3748
LeftLeg  33.3349 -12.9941 -7.29876
LeftFoot  9.99443 0.22983 -2.62799
LeftToes  -36.2673 1.71452e-006 7.46813e-008
87
root  -61.5117 30.2822 -7.20265 9.72938 8.02667 0.0258255
RightUpLeg  -26.1896 8.42952 -12.2198
RightLeg  49.9178 7.05346 7.2634
RightFoot  -22.0049 -0.721403 -3.33176
RightToes  -43.145 -0.244082 -0.33219
Spine  13.819 2.21567 -0.289194
Spine1  24.655 8.22093 -5.45393
HEad  19.9381 26.1665 -15.392
LeftShoulder1  0 -2.42657e-020 -4.95415e-022
LeftArm  -29.7764 -9.74752 -86.099
LeftForeArm  38.902 -27.6949 -5.29426
LeftHand  0.0272352 -9.02368 -0.715639
RightShoulder  0 2.42657e-020 1.07489e-018
RightArm  -1.1015 32.5867 78.3326
RightForeArm  70.5225 39.8506 8.38805
RightHand  -4.71812 22.8218 -22.7087
LeftUpLeg  -45.1376 8.58087 10.8986
LeftLeg  33.8809 -13.3286 -7.64589
LeftFoot  9.29107 0.193422 -2.38001
LeftToes  -38.6451 1.71452e-006 7.46813e-008
88
root  -62.3609 29.6232 -7.83712 9.29061 11.7986 0.410645
RightUpLeg  -29.0728 5.55154 -10.8076
RightLeg  56.517 5.21168 6.7652
RightFoot  -24.5523 -0.713786 -2.90196
RightToes  -40.8286 -0.225136 -0.319755
Spine  15.5855 3.50392 1.14167
Spine1  27.6337 12.3635 -5.26819
HEad  19.7648 22.0575 -15.1287
LeftShoulder1  0 -2.42657e-020 -4.95415e-022
LeftArm  -26.8712 -12.8384 -89.216
LeftForeArm  38.1831 -28.9789 -5.58899
LeftHand  0.00683266 -9.22456 -0.454982
RightShoulder  0 2.42657e-020 1.07489e-018
RightArm  -12.2982 35.5975 76.9749
RightForeArm  69.6089 26.4033 4.94571
RightHand  -4.29977 23.2492 -20.3188
LeftUpLeg  -48.4592 5.49973 11.833
LeftLeg  36.3111 -13.2149 -8.3314
LeftFoot  6.05821 0.0833467 -1.57495
LeftToes  -38.1503 1.71452e-006 7.46813e-008
89
root  -63.1701 28.9899 -8.56408 9.54654 15.2435 0.603273
RightUpLeg  -32.1184 2.92831 -9.59914
RightLeg  61.2936 4.00023 6.18287
RightFoot  -27.1057 -0.72442 -2.62709
RightToes  -38.8917 -0.209691 -0.308776
Spine  16.881 4.37831 2.85942
Spine1  30.3056 14.5717 -2.575
HEad  18.8851 16.383 -14.2817
LeftShoulder1  0 -2.42657e-020 -4.95415e-022
LeftArm  -23.2107 -15.2908 -92.9348
LeftForeArm  38.3109 -29.6798 -5.75251
LeftHand  -0.0413921 -9.50436 0.128047
RightShoulder  0 2.42657e-020 1.07489e-018
RightArm  -34.1307 38.2548 72.0076
RightForeArm  68.4644 15.5842 2.75004
RightHand  -2.38964 21.4818 -12.1824
LeftUpLeg  -52.6717 2.3549 12.9649
LeftLeg  38.9421 -12.8177 -8.91902
LeftFoot  2.27248 0.0149402 -0.753273
LeftToes  -35.8442 1.71452e-006 7.46813e-008
90
root  -63.9495 28.4878 -9.36072 10.4031 17.544 0.555216
RightUpLeg  -36.0393 0.854092 -8.422
RightLeg  65.2127 3.30064 5.94039
RightFoot  -28.3454 -0.723078 -2.48526
RightToes  -36.9315 -0.194446 -0.29714
Spine  17.3131 4.84281 4.36355
Spine1  31.4033 14.9459 1.22229
HEad  17.93 11.1422 -12.8768
LeftShoulder1  0 -2.42657e-020 -4.95415e-022
LeftArm  -20.385 -16.2211 -95.9848
LeftForeArm  38.4375 -30.1704 -5.86834
LeftHand  -0.0704199 -9.90795 0.442764
RightShoulder  0 2.42657e-020 1.07489e-018
RightArm  -61.0674 37.6894 62.8934
RightForeArm  60.604 6.17205 1.0507
RightHand  -1.00367 19.5878 -5.44127
LeftUpLeg  -56.6988 0.91377 13.7807
LeftLeg  40.899 -12.3809 -9.25461
LeftFoot  0.0642189 0.000234981 -0.41933
LeftToes  -31.3036 1.71452e-006 7.46813e-008
91
root  -64.5899 28.3028 -10.0544 10.6609 19.4834 0.67147
RightUpLeg  -38.5027 -0.707502 -7.58656
RightLeg  67.3625 2.91353 5.72777
RightFoot  -27.9893 -0.671194 -2.31513
RightToes  -36.3494 -0.189997 -0.293586
Spine  17.5353 4.50784 5.32936
Spine1  31.8281 13.332 4.2533
HEad  15.7618 8.21383 -12.5339
LeftShoulder1  0 -2.42657e-020 -4.95415e-022
LeftArm  -18.894 -15.9109 -97.1827
LeftForeArm  37.3757 -31.4439 -6.1762
LeftHand  -0.0969042 -9.86814 0.753038
RightShoulder  0 2.42657e-020 1.07489e-018
RightArm  -75.4697 33.0518 58.0283
RightForeArm  51.9755 5.44833 0.939759
RightHand  -0.92652 18.5635 -5.29655
LeftUpLeg  -58.2609 -1.35626 14.4259
LeftLeg  42.7357 -10.3493 -8.29858
LeftFoot  1.01796 0.0070313 -0.791493
LeftToes  -31.2952 1.71452e-006 7.46813e-008
92
root  -65.0549 28.416 -10.6913 10.9806 22.3975 1.19507
RightUpLeg  -39.3613 -3.25322 -7.24643
RightLeg  67.4334 2.64882 5.21378
RightFoot  -27.0472 -0.580065 -2.03394
RightToes  -35.5115 -0.183656 -0.288389
Spine  17.4825 3.25087 5.76827
Spine1  31.6965 10.1044 5.55937
HEad  13.4915 8.02904 -12.6134
LeftShoulder1  0 -2.42657e-020 -4.95415e-022
LeftArm  -18.4975 -15.3195 -96.4261
LeftForeArm  36.5562 -32.8619 -6.52888
LeftHand  -0.137302 -9.90241 1.21571
RightShoulder  0 2.42657e-020 1.07489e-018
RightArm  -76.481 28.941 58.999
RightForeArm  37.8836 10.6922 1.89922
RightHand  -0.67634 18.3314 -3.82124
LeftUpLeg  -58.5602 -2.98598 13.2464
LeftLeg  45.2447 -9.82242 -8.60778
LeftFoot  3.79496 0.0470201 -1.41922
LeftToes  -30.0647 1.71452e-006 7.46813e-008
93
root  -65.4305 28.7741 -11.1967 11.1333 24.815 1.12302
RightUpLeg  -39.1997 -4.54373 -6.48131
RightLeg  65.5844 2.27546 4.12826
RightFoot  -25.5356 -0.433701 -1.53624
RightToes  -34.0567 -0.17283 -0.279149
Spine  17.1186 1.91474 6.03453
Spine1  31.0807 6.8015 6.26237
HEad  13.1438 9.59942 -13.1403
LeftShoulder1  0 -2.42657e-020 -4.95415e-022
LeftArm  -18.9011 -14.3492 -95.1905
LeftForeArm  36.3707 -33.3747 -6.65919
LeftHand  -0.191252 -9.80029 1.86187
RightShoulder  0 2.42657e-020 1.07489e-018
RightArm  -71.8105 24.9397 60.8447
RightForeArm  29.8093 17.3858 3.15901
RightHand  -0.201462 20.4757 -0.745637
LeftUpLeg  -57.4646 -3.40155 12.161
LeftLeg  47.9933 -8.00697 -7.75075
LeftFoot  6.50839 0.101563 -1.78613
LeftToes  -31.4009 1.71452e-006 7.46813e-008
